<svg xmlns="http://www.w3.org/2000/svg" viewBox="0 0 48 48">
  <path d="M6 15c5.5-3 12-3 18 0 6-3 12.5-3 18 0 0 10-4 17-10 17-3.4 0-6.2-2-8-5-1.8 3-4.6 5-8 5-6 0-10-7-10-17z" fill="#9333EA" stroke="#141412" stroke-width="2" stroke-linejoin="round"/>
  <ellipse cx="15" cy="21.5" rx="4" ry="3" fill="#FDFBF6" stroke="#141412" stroke-width="1.6"/>
  <ellipse cx="33" cy="21.5" rx="4" ry="3" fill="#FDFBF6" stroke="#141412" stroke-width="1.6"/>
  <path d="M42 15l4-4M42 32l4 4-6 1" stroke="#141412" stroke-width="2" fill="none" stroke-linecap="round" stroke-linejoin="round"/>
  <path d="M10 18c2-1 4.5-1.2 7-.8" stroke="#C79BF2" stroke-width="1.8" fill="none" stroke-linecap="round"/>
</svg>
