<svg xmlns="http://www.w3.org/2000/svg" viewBox="0 0 48 48">
<g stroke="#141412" stroke-width="1.8" fill="none" stroke-linecap="round">
   <path d="M17 20c-4-1-7-4-8-8M17 26c-5 0-9-2-11-6M18 31c-4 2-8 2-12 0"/>
   <path d="M31 20c4-1 7-4 8-8M31 26c5 0 9-2 11-6M30 31c4 2 8 2 12 0"/>
  </g>
  <ellipse cx="24" cy="27" rx="6.4" ry="7.4" fill="#2A2A30" stroke="#141412" stroke-width="1.8" stroke-linejoin="round"/>
  <circle cx="24" cy="16.5" r="4" fill="#2A2A30" stroke="#141412" stroke-width="1.8" stroke-linejoin="round"/>
  <circle cx="22" cy="16" r="1.2" fill="#8E9196"/><circle cx="26" cy="16" r="1.2" fill="#8E9196"/>
</svg>
