<svg xmlns="http://www.w3.org/2000/svg" viewBox="0 0 48 48">
  <rect x="6" y="6" width="36" height="36" rx="9" fill="none" stroke="#6ED0C2" stroke-width="8" opacity=".22"/>
  <rect x="6" y="6" width="36" height="36" rx="9" fill="none" stroke="#C2903A" stroke-width="5"/>
  <circle cx="33" cy="13.5" r="4" fill="#FFD558" stroke="#785923" stroke-width="1.3"/>
  <path d="M20 34c1-6.5.6-12-1.5-17" fill="none" stroke="#785923" stroke-width="2.2" stroke-linecap="round" stroke-linejoin="round"/>
  <path d="M18.5 17c-4.3-2.6-8-2.3-11.5.5 3 2.6 6.7 2.6 11.5-.5zM18.5 17c.3-4.6 2.4-7.5 6.5-9 1 3.9-.9 7-6.5 9zM18.5 17c4.5-1.4 8-.4 10.8 2.8-3.3 2.1-6.9 1.2-10.8-2.8z" fill="#6ED0C2" stroke="#785923" stroke-width="1.4" stroke-linejoin="round" stroke-linecap="round"/>
  <path d="M12 35.5c2.6-2.2 5.4-2.2 8 0 2.6 2.2 5.4 2.2 8 0 2.6-2.2 5.4-2.2 8 0" fill="none" stroke="#C2903A" stroke-width="1.9" stroke-linecap="round" stroke-linejoin="round"/>
</svg>
