<svg xmlns="http://www.w3.org/2000/svg" viewBox="0 0 48 48" width="48" height="48"><clipPath id="b_fish_r_13"><path d="M9 26 Q13 15 24 15 Q35 15 38 24 Q35 33 24 34 Q13 34 9 26 Z"/></clipPath><path d="M36 24 Q42 18 44 16 Q43 24 44 32 Q41 29 36 27 Z" fill="#E08CB4" stroke="#141412" stroke-width="1.8" stroke-linejoin="round" stroke-linecap="round" /><path d="M9 26 Q13 15 24 15 Q35 15 38 24 Q35 33 24 34 Q13 34 9 26 Z" fill="#C05A8C" stroke="#141412" stroke-width="1.8" stroke-linejoin="round" stroke-linecap="round" /><circle cx="17.25" cy="22.0" r="2.2" fill="#E08CB4" clip-path="url(#b_fish_r_13)" opacity="0.9"/><circle cx="26.25" cy="20.5" r="1.7" fill="#E08CB4" clip-path="url(#b_fish_r_13)" opacity="0.9"/><circle cx="23.25" cy="28.0" r="2.0" fill="#E08CB4" clip-path="url(#b_fish_r_13)" opacity="0.9"/><circle cx="31.5" cy="26.5" r="1.5" fill="#E08CB4" clip-path="url(#b_fish_r_13)" opacity="0.9"/><path d="M20 15 Q23 9 27 15 Z" fill="#E08CB4" stroke="#141412" stroke-width="1.8" stroke-linejoin="round" stroke-linecap="round" /><path d="M20 33 Q23 38 26 33 Z" fill="#E08CB4" stroke="#141412" stroke-width="1.8" stroke-linejoin="round" stroke-linecap="round" /><ellipse cx="24" cy="27" rx="3.6" ry="2.4" fill="#E08CB4" stroke="#141412" stroke-width="1.4" transform="rotate(-20 24 27)"/><circle cx="15.5" cy="23.5" r="2.6" fill="#FFFFFF" stroke="#141412" stroke-width="1.4" /><circle cx="15.8" cy="23.7" r="1.1700000000000002" fill="#141412" /><circle cx="15.0" cy="22.7" r="0.5720000000000001" fill="#FFFFFF" /><path d="M10.6 28.4 Q12.4 29.4 13.8 28.6" fill="none" stroke="#141412" stroke-width="1.4" stroke-linecap="round"/><path d="M40 6.4 L40.78 8.22 L42.6 9 L40.78 9.78 L40 11.6 L39.22 9.78 L37.4 9 L39.22 8.22 Z" fill="#2F6BFF" /></svg>