<svg xmlns="http://www.w3.org/2000/svg" viewBox="0 0 48 48">
  <path d="M24 3l17 5v14c0 11-7 19-17 23C14 41 7 33 7 22V8z" fill="#C79BF2" stroke="#141412" stroke-width="2" stroke-linejoin="round"/>
  <path d="M24 7.5l13 3.8V22c0 8.6-5.3 15-13 18.4C16.3 37 11 30.6 11 22V11.3z" fill="none" stroke="#9333EA" stroke-width="2.2"/>
  <path d="M12 10.5l8-2.4" stroke="#EBDBFA" stroke-width="2" stroke-linecap="round"/>
  <path d="M19.5 28.5c1.8-2.8 3-4 4.5-4s2.7 1.2 4.5 4c1.6 2.4-.3 4.5-2.4 4-1-.3-1.4-.5-2.1-.5s-1.1.2-2.1.5c-2.1.5-4-1.6-2.4-4z" fill="#FFD558" stroke="#141412" stroke-width="1.6" stroke-linejoin="round"/>
  <circle cx="17.5" cy="21.5" r="2" fill="#FFD558" stroke="#141412" stroke-width="1.4"/><circle cx="22" cy="18.5" r="2" fill="#FFD558" stroke="#141412" stroke-width="1.4"/><circle cx="26.5" cy="18.5" r="2" fill="#FFD558" stroke="#141412" stroke-width="1.4"/><circle cx="30.5" cy="21.5" r="2" fill="#FFD558" stroke="#141412" stroke-width="1.4"/>
</svg>
