<svg xmlns="http://www.w3.org/2000/svg" viewBox="0 0 48 48">
  <path d="M24 3l17 5v14c0 11-7 19-17 23C14 41 7 33 7 22V8z" fill="#C79BF2" stroke="#141412" stroke-width="2" stroke-linejoin="round"/>
  <path d="M24 7.5l13 3.8V22c0 8.6-5.3 15-13 18.4C16.3 37 11 30.6 11 22V11.3z" fill="none" stroke="#9333EA" stroke-width="2.2"/>
  <path d="M12 10.5l8-2.4" stroke="#EBDBFA" stroke-width="2" stroke-linecap="round"/>
  <path d="M24 12l3 6 6.5 1-4.7 4.6 1.1 6.4L24 27l-5.9 3 1.1-6.4L14.5 19l6.5-1z" fill="#7A22C4" stroke="#141412" stroke-width="1.7" stroke-linejoin="round"/>
  <path d="M16 32h16M18 35.5h12" stroke="#141412" stroke-width="1.8" stroke-linecap="round"/>
</svg>
